<svg width="35" height="73" viewBox="0 0 35 73" fill="none" xmlns="http://www.w3.org/2000/svg">
<path d="M25.8081 43.0229C25.0273 43.0229 24.4868 42.6626 23.8062 41.7417L22.2646 39.6196C20.8833 40.2402 19.3018 40.5806 17.5 40.5806C10.5933 40.5806 6.56934 35.9961 6.56934 28.4888V24.4648C6.56934 16.8374 10.7734 12.0928 17.5 12.0928C24.1265 12.0928 28.4507 16.8374 28.4507 24.4648V28.4888C28.4507 32.7729 27.1895 35.856 24.9873 37.8379L26.4888 39.8999C27.0293 40.6606 27.2295 41.041 27.2295 41.5415C27.2295 42.3022 26.689 43.0229 25.8081 43.0229ZM10.0527 28.5288C10.0527 34.1143 12.9155 37.4775 17.48 37.4775C18.481 37.4775 19.4419 37.2974 20.3228 36.937L19.1616 35.3755C18.7212 34.7749 18.3809 34.2344 18.3809 33.6538C18.3809 32.793 19.0415 32.1323 19.9023 32.1323C20.4429 32.1323 20.9834 32.4326 21.604 33.2935L22.9053 35.0952C24.1665 33.6138 24.9473 31.7119 24.9473 28.5288V24.4648C24.9473 18.7593 21.7241 15.2358 17.5 15.2358C12.9155 15.2358 10.0527 18.7593 10.0527 24.4648V28.5288Z" fill="#BC1E24"/>
<path d="M18.1801 48.104C18.1038 47.9653 17.8962 47.9653 17.8199 48.104C15.5263 52.2724 13.8722 54.4782 10.5553 57.8648C10.4816 57.9401 10.4816 58.0599 10.5553 58.1352C13.8722 61.5218 15.5263 63.7276 17.8199 67.896C17.8962 68.0347 18.1038 68.0347 18.1801 67.896C20.4737 63.7276 22.1278 61.5218 25.4447 58.1352C25.5184 58.0599 25.5184 57.9401 25.4447 57.8648C22.1278 54.4782 20.4737 52.2724 18.1801 48.104Z" fill="#BC1E24"/>
</svg>
