<svg width="35" height="73" viewBox="0 0 35 73" fill="none" xmlns="http://www.w3.org/2000/svg">
<path d="M25.8081 43.0229C25.0273 43.0229 24.4868 42.6626 23.8062 41.7417L22.2646 39.6196C20.8833 40.2402 19.3018 40.5806 17.5 40.5806C10.5933 40.5806 6.56934 35.9961 6.56934 28.4888V24.4648C6.56934 16.8374 10.7734 12.0928 17.5 12.0928C24.1265 12.0928 28.4507 16.8374 28.4507 24.4648V28.4888C28.4507 32.7729 27.1895 35.856 24.9873 37.8379L26.4888 39.8999C27.0293 40.6606 27.2295 41.041 27.2295 41.5415C27.2295 42.3022 26.689 43.0229 25.8081 43.0229ZM10.0527 28.5288C10.0527 34.1143 12.9155 37.4775 17.48 37.4775C18.481 37.4775 19.4419 37.2974 20.3228 36.937L19.1616 35.3755C18.7212 34.7749 18.3809 34.2344 18.3809 33.6538C18.3809 32.793 19.0415 32.1323 19.9023 32.1323C20.4429 32.1323 20.9834 32.4326 21.604 33.2935L22.9053 35.0952C24.1665 33.6138 24.9473 31.7119 24.9473 28.5288V24.4648C24.9473 18.7593 21.7241 15.2358 17.5 15.2358C12.9155 15.2358 10.0527 18.7593 10.0527 24.4648V28.5288Z" fill="#211C1D"/>
<path d="M16.0324 68C15.815 68 15.6387 67.826 15.6387 67.6115C15.6387 66.8912 16.9316 64.2013 17.1901 62.0959C17.2179 61.8695 16.886 61.7854 16.7639 61.9791C16.0982 63.0359 15.1904 64.515 12.9784 64.4633L12.9355 64.4647C12.9068 64.4656 12.8781 64.4666 12.8492 64.4666C10.4471 64.4666 8.5 62.3541 8.5 59.7483C8.5 57.1425 10.4471 55.03 12.8492 55.03C13.3182 55.03 13.7697 55.1108 14.1928 55.26C14.2915 55.2948 14.3921 55.1811 14.3431 55.0897C13.9682 54.3927 13.7531 53.5823 13.7531 52.717C13.7531 50.1483 15.625 48 18 48C20.375 48 22.2469 50.1483 22.2469 52.717C22.2469 53.5823 22.0318 54.3927 21.6569 55.0897C21.6079 55.1811 21.7085 55.2948 21.8072 55.26C22.2303 55.1108 22.6818 55.03 23.1508 55.03C25.5529 55.03 27.5 57.1425 27.5 59.7483C27.5 62.3541 25.5529 64.4666 23.1508 64.4666C23.1219 64.4666 23.0932 64.4656 23.0645 64.4647L23.0216 64.4633C20.8096 64.515 19.9018 63.0359 19.2361 61.9791C19.114 61.7854 18.7821 61.8695 18.8099 62.0959C19.0684 64.2013 20.3613 66.8913 20.3613 67.6114C20.3613 67.826 20.185 68 19.9676 68H16.0324Z" fill="#211C1D"/>
</svg>
