<svg width="35" height="73" viewBox="0 0 35 73" fill="none" xmlns="http://www.w3.org/2000/svg">
<path d="M8.31104 34.3945C8.31104 33.4937 8.93164 32.853 9.8125 32.853C10.5132 32.853 10.9536 33.2134 11.4741 34.2344C12.5151 36.3765 14.5972 37.5776 17.3198 37.5776C20.9033 37.5776 23.1855 35.6157 23.1855 32.5527C23.1855 29.4897 20.8433 27.4277 17.3599 27.4277H14.8574C13.9365 27.4277 13.2559 26.7671 13.2559 25.9062C13.2559 25.0254 13.8965 24.4048 14.8574 24.4048H17.2197C20.1426 24.4048 22.2646 22.4229 22.2646 19.6802C22.2646 16.9375 20.2026 15.0957 17.1396 15.0957C14.7573 15.0957 12.9556 16.2769 12.1548 18.3389C11.7544 19.4399 11.2539 19.8604 10.4731 19.8604C9.55225 19.8604 8.95166 19.1997 8.95166 18.1987C8.95166 15.0957 12.2949 12.0928 17.2197 12.0928C22.2246 12.0928 25.7881 15.0757 25.7881 19.2397C25.7881 22.2627 23.5259 25.1455 20.7432 25.626V25.8262C24.1265 26.2065 26.709 29.1694 26.709 32.6128C26.709 37.2974 22.8252 40.5806 17.2598 40.5806C12.0947 40.5806 8.31104 37.4575 8.31104 34.3945Z" fill="#211C1D"/>
<path d="M16.2375 68C16.0275 68 15.8572 67.8365 15.8572 67.6348C15.8572 67.2053 16.9342 64.3825 17.1943 62.4832C17.2256 62.2548 16.9357 62.1637 16.8047 62.3495C16.177 63.2399 15.5441 64.1922 13.8225 64.2149C10.615 64.2572 8.76719 61.2101 9.77613 58.4373C10.2708 57.0778 17.0754 48 18 48C18.9245 48 25.7292 57.0778 26.2239 58.4373C27.2328 61.2101 25.385 64.2572 22.1775 64.2149C20.4559 64.1922 19.823 63.2399 19.1953 62.3495C19.0643 62.1637 18.7744 62.2548 18.8057 62.4832C19.0658 64.3825 20.1428 67.2053 20.1428 67.6348C20.1428 67.8365 19.9725 68 19.7625 68H16.2375Z" fill="#211C1D"/>
</svg>
