<svg width="35" height="73" viewBox="0 0 35 73" fill="none" xmlns="http://www.w3.org/2000/svg">
<path d="M11.5347 38.7588C11.5347 38.3184 11.6748 37.938 11.895 37.4976L22.0049 15.9365V15.7363H9.59277C8.35156 15.7363 7.75098 15.0957 7.75098 14.2148C7.75098 13.314 8.35156 12.6733 9.59277 12.6733H23.8467C24.8877 12.6733 25.7485 13.394 25.7485 14.5752C25.7485 15.1357 25.4683 16.0566 25.0278 16.9976L14.8179 39.0391C14.4375 39.8398 13.957 40.3203 13.1162 40.3203C12.2954 40.3203 11.5347 39.6997 11.5347 38.7588Z" fill="#211C1D"/>
<path d="M16.2375 68C16.0275 68 15.8572 67.8365 15.8572 67.6348C15.8572 67.2053 16.9342 64.3825 17.1943 62.4832C17.2256 62.2548 16.9357 62.1637 16.8047 62.3495C16.177 63.2399 15.5441 64.1922 13.8225 64.2149C10.615 64.2572 8.76719 61.2101 9.77613 58.4373C10.2708 57.0778 17.0754 48 18 48C18.9245 48 25.7292 57.0778 26.2239 58.4373C27.2328 61.2101 25.385 64.2572 22.1775 64.2149C20.4559 64.1922 19.823 63.2399 19.1953 62.3495C19.0643 62.1637 18.7744 62.2548 18.8057 62.4832C19.0658 64.3825 20.1428 67.2053 20.1428 67.6348C20.1428 67.8365 19.9725 68 19.7625 68H16.2375Z" fill="#211C1D"/>
</svg>
