<svg width="35" height="73" viewBox="0 0 35 73" fill="none" xmlns="http://www.w3.org/2000/svg">
<path d="M20.4634 38.3784V34.3145H9.93311C8.37158 34.3145 7.33057 33.4937 7.33057 32.1724C7.33057 31.4316 7.5708 30.731 8.27148 29.4497C11.1343 24.3848 12.936 21.502 17.4805 14.6953C18.6616 12.9536 19.5825 12.353 20.9639 12.353C22.7856 12.353 23.8066 13.394 23.8066 15.2559V31.2515H25.8887C27.0098 31.2515 27.6704 31.812 27.6704 32.793C27.6704 33.7539 27.0298 34.3145 25.8887 34.3145H23.8066V38.3784C23.8066 39.5396 23.2061 40.2002 22.125 40.2002C21.064 40.2002 20.4634 39.5396 20.4634 38.3784ZM10.6938 31.2515H20.4634V15.7563H20.2832C16.8799 20.7812 13.3164 26.5068 10.6938 31.0513V31.2515Z" fill="#BC1E24"/>
<path d="M18.1801 48.104C18.1038 47.9653 17.8962 47.9653 17.8199 48.104C15.5263 52.2724 13.8722 54.4782 10.5553 57.8648C10.4816 57.9401 10.4816 58.0599 10.5553 58.1352C13.8722 61.5218 15.5263 63.7276 17.8199 67.896C17.8962 68.0347 18.1038 68.0347 18.1801 67.896C20.4737 63.7276 22.1278 61.5218 25.4447 58.1352C25.5184 58.0599 25.5184 57.9401 25.4447 57.8648C22.1278 54.4782 20.4737 52.2724 18.1801 48.104Z" fill="#BC1E24"/>
</svg>
