<svg width="35" height="73" viewBox="0 0 35 73" fill="none" xmlns="http://www.w3.org/2000/svg">
<path d="M8.03076 27.1274C8.03076 17.498 11.7344 12.1528 18.3809 12.1528C20.5229 12.1528 22.585 12.7334 24.1064 13.7744C25.4277 14.6353 26.2285 15.7363 26.2285 16.6572C26.2285 17.5181 25.6079 18.1587 24.7471 18.1587C24.1865 18.1587 23.7661 17.9385 23.0454 17.2378C21.604 15.8164 20.1025 15.1758 18.3208 15.1758C13.8564 15.1758 11.4941 19.0996 11.4341 26.5869H11.5942C12.5151 24.1445 15.3779 22.4229 18.501 22.4229C23.5859 22.4229 27.1494 26.0864 27.1494 31.3115C27.1494 36.8169 23.3857 40.5605 17.8203 40.5605C14.437 40.5605 11.7344 39.1592 10.0928 36.5767C8.71143 34.3745 8.03076 31.2715 8.03076 27.1274ZM11.9346 31.4316C11.9346 35.0151 14.417 37.5576 17.9604 37.5576C21.4038 37.5576 23.7061 35.1353 23.7061 31.4517C23.7061 27.8081 21.3838 25.4058 17.8203 25.4058C14.3569 25.4058 11.9346 27.8882 11.9346 31.4316Z" fill="#211C1D"/>
<path d="M16.2375 68C16.0275 68 15.8572 67.8365 15.8572 67.6348C15.8572 67.2053 16.9342 64.3825 17.1943 62.4832C17.2256 62.2548 16.9357 62.1637 16.8047 62.3495C16.177 63.2399 15.5441 64.1922 13.8225 64.2149C10.615 64.2572 8.76719 61.2101 9.77613 58.4373C10.2708 57.0778 17.0754 48 18 48C18.9245 48 25.7292 57.0778 26.2239 58.4373C27.2328 61.2101 25.385 64.2572 22.1775 64.2149C20.4559 64.1922 19.823 63.2399 19.1953 62.3495C19.0643 62.1637 18.7744 62.2548 18.8057 62.4832C19.0658 64.3825 20.1428 67.2053 20.1428 67.6348C20.1428 67.8365 19.9725 68 19.7625 68H16.2375Z" fill="#211C1D"/>
</svg>
