<svg width="35" height="73" viewBox="0 0 35 73" fill="none" xmlns="http://www.w3.org/2000/svg">
<path d="M19.9229 14.415C19.9229 13.2139 20.5835 12.4731 21.6646 12.4731C22.7456 12.4731 23.4263 13.2139 23.4263 14.415V32.1924C23.4263 37.3774 20.4233 40.5806 15.5986 40.5806C12.9961 40.5806 10.9341 39.7998 9.5127 38.3184C8.5918 37.3574 8.03125 36.1562 8.03125 35.0752C8.03125 34.0342 8.5918 33.3936 9.49268 33.3936C10.1934 33.3936 10.5737 33.7339 11.0942 34.7549C11.9551 36.5166 13.4365 37.4375 15.4585 37.4375C18.2812 37.4375 19.9229 35.5757 19.9229 32.3325V14.415Z" fill="#BC1E24"/>
<path d="M18.1801 48.104C18.1038 47.9653 17.8962 47.9653 17.8199 48.104C15.5263 52.2724 13.8722 54.4782 10.5553 57.8648C10.4816 57.9401 10.4816 58.0599 10.5553 58.1352C13.8722 61.5218 15.5263 63.7276 17.8199 67.896C17.8962 68.0347 18.1038 68.0347 18.1801 67.896C20.4737 63.7276 22.1278 61.5218 25.4447 58.1352C25.5184 58.0599 25.5184 57.9401 25.4447 57.8648C22.1278 54.4782 20.4737 52.2724 18.1801 48.104Z" fill="#BC1E24"/>
</svg>
