<svg width="35" height="73" viewBox="0 0 35 73" fill="none" xmlns="http://www.w3.org/2000/svg">
<path d="M8.03076 27.1274C8.03076 17.498 11.7344 12.1528 18.3809 12.1528C20.5229 12.1528 22.585 12.7334 24.1064 13.7744C25.4277 14.6353 26.2285 15.7363 26.2285 16.6572C26.2285 17.5181 25.6079 18.1587 24.7471 18.1587C24.1865 18.1587 23.7661 17.9385 23.0454 17.2378C21.604 15.8164 20.1025 15.1758 18.3208 15.1758C13.8564 15.1758 11.4941 19.0996 11.4341 26.5869H11.5942C12.5151 24.1445 15.3779 22.4229 18.501 22.4229C23.5859 22.4229 27.1494 26.0864 27.1494 31.3115C27.1494 36.8169 23.3857 40.5605 17.8203 40.5605C14.437 40.5605 11.7344 39.1592 10.0928 36.5767C8.71143 34.3745 8.03076 31.2715 8.03076 27.1274ZM11.9346 31.4316C11.9346 35.0151 14.417 37.5576 17.9604 37.5576C21.4038 37.5576 23.7061 35.1353 23.7061 31.4517C23.7061 27.8081 21.3838 25.4058 17.8203 25.4058C14.3569 25.4058 11.9346 27.8882 11.9346 31.4316Z" fill="#211C1D"/>
<path d="M16.0324 68C15.815 68 15.6387 67.826 15.6387 67.6115C15.6387 66.8912 16.9316 64.2013 17.1901 62.0959C17.2179 61.8695 16.886 61.7854 16.7639 61.9791C16.0982 63.0359 15.1904 64.515 12.9784 64.4633L12.9355 64.4647C12.9068 64.4656 12.8781 64.4666 12.8492 64.4666C10.4471 64.4666 8.5 62.3541 8.5 59.7483C8.5 57.1425 10.4471 55.03 12.8492 55.03C13.3182 55.03 13.7697 55.1108 14.1928 55.26C14.2915 55.2948 14.3921 55.1811 14.3431 55.0897C13.9682 54.3927 13.7531 53.5823 13.7531 52.717C13.7531 50.1483 15.625 48 18 48C20.375 48 22.2469 50.1483 22.2469 52.717C22.2469 53.5823 22.0318 54.3927 21.6569 55.0897C21.6079 55.1811 21.7085 55.2948 21.8072 55.26C22.2303 55.1108 22.6818 55.03 23.1508 55.03C25.5529 55.03 27.5 57.1425 27.5 59.7483C27.5 62.3541 25.5529 64.4666 23.1508 64.4666C23.1219 64.4666 23.0932 64.4656 23.0645 64.4647L23.0216 64.4633C20.8096 64.515 19.9018 63.0359 19.2361 61.9791C19.114 61.7854 18.7821 61.8695 18.8099 62.0959C19.0684 64.2013 20.3613 66.8913 20.3613 67.6114C20.3613 67.826 20.185 68 19.9676 68H16.0324Z" fill="#211C1D"/>
</svg>
