<svg width="35" height="73" viewBox="0 0 35 73" fill="none" xmlns="http://www.w3.org/2000/svg">
<path d="M9.23193 38.1382C9.23193 37.4175 9.57227 36.8569 10.7534 35.5156L19.0815 25.9863C21.3438 23.4038 22.2046 21.7222 22.2046 19.8403C22.2046 17.0176 20.1826 15.1357 17.1396 15.1357C14.5571 15.1357 12.6553 16.6772 12.0547 19.2798C11.7744 20.3408 11.2139 20.8813 10.3931 20.8813C9.41211 20.8813 8.77148 20.1406 8.77148 19.0596C8.77148 15.6562 12.0747 12.0928 17.3599 12.0928C22.2847 12.0928 25.748 15.2158 25.748 19.6201C25.748 22.2227 24.7271 24.1245 21.1235 28.2285L13.7163 36.6968V36.937H24.8271C25.8882 36.937 26.5688 37.5176 26.5688 38.4785C26.5688 39.4194 25.9282 40 24.8271 40H11.6143C10.1528 40 9.23193 39.2993 9.23193 38.1382Z" fill="#BC1E24"/>
<path d="M13.7347 49.0006C16.4518 49.042 17.5069 51.3984 17.8537 52.5094C17.8888 52.6218 18.1122 52.6217 18.1472 52.5093C18.4938 51.3983 19.5482 49.042 22.2653 49.0006C25.8229 48.9462 28.4995 52.9292 26.0587 56.9289C23.8832 60.4939 18.0821 67 18 67C17.9165 67 12.1169 60.4943 9.94127 56.9289C7.50053 52.9291 10.177 48.9462 13.7347 49.0006Z" fill="#BC1E24"/>
</svg>
