<svg width="35" height="73" viewBox="0 0 35 73" fill="none" xmlns="http://www.w3.org/2000/svg">
<path d="M7.47871 40.2002C6.39766 40.2002 5.73701 39.4595 5.73701 38.2783V14.395C5.73701 13.2139 6.39766 12.4731 7.47871 12.4731C8.55977 12.4731 9.24043 13.2139 9.24043 14.395V38.2783C9.24043 39.4595 8.55977 40.2002 7.47871 40.2002ZM10.2454 26.8672V25.8662C10.2454 17.5781 13.7889 12.0928 19.9749 12.0928C26.1609 12.0928 29.6844 17.5781 29.6844 25.8662V26.8672C29.6844 35.1353 26.1409 40.5806 19.9549 40.5806C13.7889 40.5806 10.2454 35.1553 10.2454 26.8672ZM13.7488 25.8862V26.8271C13.7488 33.4937 16.1312 37.5576 19.9749 37.5576C23.8187 37.5576 26.201 33.4937 26.201 26.8271V25.8862C26.201 19.2197 23.7986 15.1357 19.9549 15.1357C16.1312 15.1357 13.7488 19.2197 13.7488 25.8862Z" fill="#BC1E24"/>
<path d="M18.1801 48.104C18.1038 47.9653 17.8962 47.9653 17.8199 48.104C15.5263 52.2724 13.8722 54.4782 10.5553 57.8648C10.4816 57.9401 10.4816 58.0599 10.5553 58.1352C13.8722 61.5218 15.5263 63.7276 17.8199 67.896C17.8962 68.0347 18.1038 68.0347 18.1801 67.896C20.4737 63.7276 22.1278 61.5218 25.4447 58.1352C25.5184 58.0599 25.5184 57.9401 25.4447 57.8648C22.1278 54.4782 20.4737 52.2724 18.1801 48.104Z" fill="#BC1E24"/>
</svg>
