<svg width="35" height="73" viewBox="0 0 35 73" fill="none" xmlns="http://www.w3.org/2000/svg">
<path d="M25.8081 43.0229C25.0273 43.0229 24.4868 42.6626 23.8062 41.7417L22.2646 39.6196C20.8833 40.2402 19.3018 40.5806 17.5 40.5806C10.5933 40.5806 6.56934 35.9961 6.56934 28.4888V24.4648C6.56934 16.8374 10.7734 12.0928 17.5 12.0928C24.1265 12.0928 28.4507 16.8374 28.4507 24.4648V28.4888C28.4507 32.7729 27.1895 35.856 24.9873 37.8379L26.4888 39.8999C27.0293 40.6606 27.2295 41.041 27.2295 41.5415C27.2295 42.3022 26.689 43.0229 25.8081 43.0229ZM10.0527 28.5288C10.0527 34.1143 12.9155 37.4775 17.48 37.4775C18.481 37.4775 19.4419 37.2974 20.3228 36.937L19.1616 35.3755C18.7212 34.7749 18.3809 34.2344 18.3809 33.6538C18.3809 32.793 19.0415 32.1323 19.9023 32.1323C20.4429 32.1323 20.9834 32.4326 21.604 33.2935L22.9053 35.0952C24.1665 33.6138 24.9473 31.7119 24.9473 28.5288V24.4648C24.9473 18.7593 21.7241 15.2358 17.5 15.2358C12.9155 15.2358 10.0527 18.7593 10.0527 24.4648V28.5288Z" fill="#211C1D"/>
<path d="M16.2375 68C16.0275 68 15.8572 67.8365 15.8572 67.6348C15.8572 67.2053 16.9342 64.3825 17.1943 62.4832C17.2256 62.2548 16.9357 62.1637 16.8047 62.3495C16.177 63.2399 15.5441 64.1922 13.8225 64.2149C10.615 64.2572 8.76719 61.2101 9.77613 58.4373C10.2708 57.0778 17.0754 48 18 48C18.9245 48 25.7292 57.0778 26.2239 58.4373C27.2328 61.2101 25.385 64.2572 22.1775 64.2149C20.4559 64.1922 19.823 63.2399 19.1953 62.3495C19.0643 62.1637 18.7744 62.2548 18.8057 62.4832C19.0658 64.3825 20.1428 67.2053 20.1428 67.6348C20.1428 67.8365 19.9725 68 19.7625 68H16.2375Z" fill="#211C1D"/>
</svg>
