<svg width="35" height="73" viewBox="0 0 35 73" fill="none" xmlns="http://www.w3.org/2000/svg">
<path d="M8.11133 34.5547C8.11133 33.5537 8.69189 32.873 9.57275 32.873C10.2534 32.873 10.6938 33.2334 11.2144 34.2544C12.3154 36.3965 14.1572 37.5576 16.5596 37.5576C20.2031 37.5576 22.7456 34.9951 22.7456 31.3115C22.7456 27.7881 20.2832 25.3057 16.8198 25.3057C15.2583 25.3057 13.877 25.8262 12.7158 26.8672C11.2544 28.2285 10.854 28.4688 10.2134 28.4688C9.07227 28.4688 8.4917 27.5679 8.5918 26.0264L9.47266 14.8154C9.59277 13.334 10.4536 12.6333 12.1753 12.6333H23.4062C24.5674 12.6333 25.248 13.2139 25.248 14.1948C25.248 15.1558 24.5874 15.6963 23.4062 15.6963H12.6157L11.855 24.605H12.0552C12.9561 23.2637 15.2983 22.3027 17.6006 22.3027C22.6855 22.3027 26.269 25.9463 26.269 31.1313C26.269 36.6567 22.2852 40.5806 16.6997 40.5806C11.4146 40.5806 8.11133 37.3574 8.11133 34.5547Z" fill="#211C1D"/>
<path d="M16.0324 68C15.815 68 15.6387 67.826 15.6387 67.6115C15.6387 66.8912 16.9316 64.2013 17.1901 62.0959C17.2179 61.8695 16.886 61.7854 16.7639 61.9791C16.0982 63.0359 15.1904 64.515 12.9784 64.4633L12.9355 64.4647C12.9068 64.4656 12.8781 64.4666 12.8492 64.4666C10.4471 64.4666 8.5 62.3541 8.5 59.7483C8.5 57.1425 10.4471 55.03 12.8492 55.03C13.3182 55.03 13.7697 55.1108 14.1928 55.26C14.2915 55.2948 14.3921 55.1811 14.3431 55.0897C13.9682 54.3927 13.7531 53.5823 13.7531 52.717C13.7531 50.1483 15.625 48 18 48C20.375 48 22.2469 50.1483 22.2469 52.717C22.2469 53.5823 22.0318 54.3927 21.6569 55.0897C21.6079 55.1811 21.7085 55.2948 21.8072 55.26C22.2303 55.1108 22.6818 55.03 23.1508 55.03C25.5529 55.03 27.5 57.1425 27.5 59.7483C27.5 62.3541 25.5529 64.4666 23.1508 64.4666C23.1219 64.4666 23.0932 64.4656 23.0645 64.4647L23.0216 64.4633C20.8096 64.515 19.9018 63.0359 19.2361 61.9791C19.114 61.7854 18.7821 61.8695 18.8099 62.0959C19.0684 64.2013 20.3613 66.8913 20.3613 67.6114C20.3613 67.826 20.185 68 19.9676 68H16.0324Z" fill="#211C1D"/>
</svg>
