<svg width="35" height="73" viewBox="0 0 35 73" fill="none" xmlns="http://www.w3.org/2000/svg">
<path d="M25.7485 40.0601C25.0479 40.0601 24.4473 39.6597 23.7466 38.6787L15.3584 26.8071L11.915 30.3706V38.2783C11.915 39.4595 11.2344 40.2002 10.1533 40.2002C9.07227 40.2002 8.41162 39.4595 8.41162 38.2783V14.395C8.41162 13.2139 9.07227 12.4731 10.1533 12.4731C11.2344 12.4731 11.915 13.2139 11.915 14.395V25.8462H12.0752L23.4663 13.6943C24.207 12.8735 24.6675 12.6133 25.248 12.6133C26.1289 12.6133 26.7896 13.2939 26.7896 14.1348C26.7896 14.6553 26.6294 14.9556 25.8286 15.7964L17.9609 24.4048L26.5293 36.2964C27.3701 37.4575 27.5503 37.8179 27.5503 38.3384C27.5503 39.3594 26.8096 40.0601 25.7485 40.0601Z" fill="#211C1D"/>
<path d="M16.0324 68C15.815 68 15.6387 67.826 15.6387 67.6115C15.6387 66.8912 16.9316 64.2013 17.1901 62.0959C17.2179 61.8695 16.886 61.7854 16.7639 61.9791C16.0982 63.0359 15.1904 64.515 12.9784 64.4633L12.9355 64.4647C12.9068 64.4656 12.8781 64.4666 12.8492 64.4666C10.4471 64.4666 8.5 62.3541 8.5 59.7483C8.5 57.1425 10.4471 55.03 12.8492 55.03C13.3182 55.03 13.7697 55.1108 14.1928 55.26C14.2915 55.2948 14.3921 55.1811 14.3431 55.0897C13.9682 54.3927 13.7531 53.5823 13.7531 52.717C13.7531 50.1483 15.625 48 18 48C20.375 48 22.2469 50.1483 22.2469 52.717C22.2469 53.5823 22.0318 54.3927 21.6569 55.0897C21.6079 55.1811 21.7085 55.2948 21.8072 55.26C22.2303 55.1108 22.6818 55.03 23.1508 55.03C25.5529 55.03 27.5 57.1425 27.5 59.7483C27.5 62.3541 25.5529 64.4666 23.1508 64.4666C23.1219 64.4666 23.0932 64.4656 23.0645 64.4647L23.0216 64.4633C20.8096 64.515 19.9018 63.0359 19.2361 61.9791C19.114 61.7854 18.7821 61.8695 18.8099 62.0959C19.0684 64.2013 20.3613 66.8913 20.3613 67.6114C20.3613 67.826 20.185 68 19.9676 68H16.0324Z" fill="#211C1D"/>
</svg>
