<svg width="35" height="73" viewBox="0 0 35 73" fill="none" xmlns="http://www.w3.org/2000/svg">
<path d="M19.9229 14.415C19.9229 13.2139 20.5835 12.4731 21.6646 12.4731C22.7456 12.4731 23.4263 13.2139 23.4263 14.415V32.1924C23.4263 37.3774 20.4233 40.5806 15.5986 40.5806C12.9961 40.5806 10.9341 39.7998 9.5127 38.3184C8.5918 37.3574 8.03125 36.1562 8.03125 35.0752C8.03125 34.0342 8.5918 33.3936 9.49268 33.3936C10.1934 33.3936 10.5737 33.7339 11.0942 34.7549C11.9551 36.5166 13.4365 37.4375 15.4585 37.4375C18.2812 37.4375 19.9229 35.5757 19.9229 32.3325V14.415Z" fill="#BC1E24"/>
<path d="M13.7347 49.0006C16.4518 49.042 17.5069 51.3984 17.8537 52.5094C17.8888 52.6218 18.1122 52.6217 18.1472 52.5093C18.4938 51.3983 19.5482 49.042 22.2653 49.0006C25.8229 48.9462 28.4995 52.9292 26.0587 56.9289C23.8832 60.4939 18.0821 67 18 67C17.9165 67 12.1169 60.4943 9.94127 56.9289C7.50053 52.9291 10.177 48.9462 13.7347 49.0006Z" fill="#BC1E24"/>
</svg>
