<svg width="35" height="73" viewBox="0 0 35 73" fill="none" xmlns="http://www.w3.org/2000/svg">
<path d="M25.7485 40.0601C25.0479 40.0601 24.4473 39.6597 23.7466 38.6787L15.3584 26.8071L11.915 30.3706V38.2783C11.915 39.4595 11.2344 40.2002 10.1533 40.2002C9.07227 40.2002 8.41162 39.4595 8.41162 38.2783V14.395C8.41162 13.2139 9.07227 12.4731 10.1533 12.4731C11.2344 12.4731 11.915 13.2139 11.915 14.395V25.8462H12.0752L23.4663 13.6943C24.207 12.8735 24.6675 12.6133 25.248 12.6133C26.1289 12.6133 26.7896 13.2939 26.7896 14.1348C26.7896 14.6553 26.6294 14.9556 25.8286 15.7964L17.9609 24.4048L26.5293 36.2964C27.3701 37.4575 27.5503 37.8179 27.5503 38.3384C27.5503 39.3594 26.8096 40.0601 25.7485 40.0601Z" fill="#BC1E24"/>
<path d="M18.1801 48.104C18.1038 47.9653 17.8962 47.9653 17.8199 48.104C15.5263 52.2724 13.8722 54.4782 10.5553 57.8648C10.4816 57.9401 10.4816 58.0599 10.5553 58.1352C13.8722 61.5218 15.5263 63.7276 17.8199 67.896C17.8962 68.0347 18.1038 68.0347 18.1801 67.896C20.4737 63.7276 22.1278 61.5218 25.4447 58.1352C25.5184 58.0599 25.5184 57.9401 25.4447 57.8648C22.1278 54.4782 20.4737 52.2724 18.1801 48.104Z" fill="#BC1E24"/>
</svg>
