<svg width="35" height="73" viewBox="0 0 35 73" fill="none" xmlns="http://www.w3.org/2000/svg">
<path d="M25.7485 40.0601C25.0479 40.0601 24.4473 39.6597 23.7466 38.6787L15.3584 26.8071L11.915 30.3706V38.2783C11.915 39.4595 11.2344 40.2002 10.1533 40.2002C9.07227 40.2002 8.41162 39.4595 8.41162 38.2783V14.395C8.41162 13.2139 9.07227 12.4731 10.1533 12.4731C11.2344 12.4731 11.915 13.2139 11.915 14.395V25.8462H12.0752L23.4663 13.6943C24.207 12.8735 24.6675 12.6133 25.248 12.6133C26.1289 12.6133 26.7896 13.2939 26.7896 14.1348C26.7896 14.6553 26.6294 14.9556 25.8286 15.7964L17.9609 24.4048L26.5293 36.2964C27.3701 37.4575 27.5503 37.8179 27.5503 38.3384C27.5503 39.3594 26.8096 40.0601 25.7485 40.0601Z" fill="#BC1E24"/>
<path d="M13.7347 49.0006C16.4518 49.042 17.5069 51.3984 17.8537 52.5094C17.8888 52.6218 18.1122 52.6217 18.1472 52.5093C18.4938 51.3983 19.5482 49.042 22.2653 49.0006C25.8229 48.9462 28.4995 52.9292 26.0587 56.9289C23.8832 60.4939 18.0821 67 18 67C17.9165 67 12.1169 60.4943 9.94127 56.9289C7.50053 52.9291 10.177 48.9462 13.7347 49.0006Z" fill="#BC1E24"/>
</svg>
