<svg width="35" height="73" viewBox="0 0 35 73" fill="none" xmlns="http://www.w3.org/2000/svg">
<path d="M8.11133 34.5547C8.11133 33.5537 8.69189 32.873 9.57275 32.873C10.2534 32.873 10.6938 33.2334 11.2144 34.2544C12.3154 36.3965 14.1572 37.5576 16.5596 37.5576C20.2031 37.5576 22.7456 34.9951 22.7456 31.3115C22.7456 27.7881 20.2832 25.3057 16.8198 25.3057C15.2583 25.3057 13.877 25.8262 12.7158 26.8672C11.2544 28.2285 10.854 28.4688 10.2134 28.4688C9.07227 28.4688 8.4917 27.5679 8.5918 26.0264L9.47266 14.8154C9.59277 13.334 10.4536 12.6333 12.1753 12.6333H23.4062C24.5674 12.6333 25.248 13.2139 25.248 14.1948C25.248 15.1558 24.5874 15.6963 23.4062 15.6963H12.6157L11.855 24.605H12.0552C12.9561 23.2637 15.2983 22.3027 17.6006 22.3027C22.6855 22.3027 26.269 25.9463 26.269 31.1313C26.269 36.6567 22.2852 40.5806 16.6997 40.5806C11.4146 40.5806 8.11133 37.3574 8.11133 34.5547Z" fill="#211C1D"/>
<path d="M16.2375 68C16.0275 68 15.8572 67.8365 15.8572 67.6348C15.8572 67.2053 16.9342 64.3825 17.1943 62.4832C17.2256 62.2548 16.9357 62.1637 16.8047 62.3495C16.177 63.2399 15.5441 64.1922 13.8225 64.2149C10.615 64.2572 8.76719 61.2101 9.77613 58.4373C10.2708 57.0778 17.0754 48 18 48C18.9245 48 25.7292 57.0778 26.2239 58.4373C27.2328 61.2101 25.385 64.2572 22.1775 64.2149C20.4559 64.1922 19.823 63.2399 19.1953 62.3495C19.0643 62.1637 18.7744 62.2548 18.8057 62.4832C19.0658 64.3825 20.1428 67.2053 20.1428 67.6348C20.1428 67.8365 19.9725 68 19.7625 68H16.2375Z" fill="#211C1D"/>
</svg>
