<svg width="35" height="73" viewBox="0 0 35 73" fill="none" xmlns="http://www.w3.org/2000/svg">
<path d="M25.8081 43.0229C25.0273 43.0229 24.4868 42.6626 23.8062 41.7417L22.2646 39.6196C20.8833 40.2402 19.3018 40.5806 17.5 40.5806C10.5933 40.5806 6.56934 35.9961 6.56934 28.4888V24.4648C6.56934 16.8374 10.7734 12.0928 17.5 12.0928C24.1265 12.0928 28.4507 16.8374 28.4507 24.4648V28.4888C28.4507 32.7729 27.1895 35.856 24.9873 37.8379L26.4888 39.8999C27.0293 40.6606 27.2295 41.041 27.2295 41.5415C27.2295 42.3022 26.689 43.0229 25.8081 43.0229ZM10.0527 28.5288C10.0527 34.1143 12.9155 37.4775 17.48 37.4775C18.481 37.4775 19.4419 37.2974 20.3228 36.937L19.1616 35.3755C18.7212 34.7749 18.3809 34.2344 18.3809 33.6538C18.3809 32.793 19.0415 32.1323 19.9023 32.1323C20.4429 32.1323 20.9834 32.4326 21.604 33.2935L22.9053 35.0952C24.1665 33.6138 24.9473 31.7119 24.9473 28.5288V24.4648C24.9473 18.7593 21.7241 15.2358 17.5 15.2358C12.9155 15.2358 10.0527 18.7593 10.0527 24.4648V28.5288Z" fill="#BC1E24"/>
<path d="M13.7347 49.0006C16.4518 49.042 17.5069 51.3984 17.8537 52.5094C17.8888 52.6218 18.1122 52.6217 18.1472 52.5093C18.4938 51.3983 19.5482 49.042 22.2653 49.0006C25.8229 48.9462 28.4995 52.9292 26.0587 56.9289C23.8832 60.4939 18.0821 67 18 67C17.9165 67 12.1169 60.4943 9.94127 56.9289C7.50053 52.9291 10.177 48.9462 13.7347 49.0006Z" fill="#BC1E24"/>
</svg>
