<svg width="35" height="73" viewBox="0 0 35 73" fill="none" xmlns="http://www.w3.org/2000/svg">
<path d="M20.4634 38.3784V34.3145H9.93311C8.37158 34.3145 7.33057 33.4937 7.33057 32.1724C7.33057 31.4316 7.5708 30.731 8.27148 29.4497C11.1343 24.3848 12.936 21.502 17.4805 14.6953C18.6616 12.9536 19.5825 12.353 20.9639 12.353C22.7856 12.353 23.8066 13.394 23.8066 15.2559V31.2515H25.8887C27.0098 31.2515 27.6704 31.812 27.6704 32.793C27.6704 33.7539 27.0298 34.3145 25.8887 34.3145H23.8066V38.3784C23.8066 39.5396 23.2061 40.2002 22.125 40.2002C21.064 40.2002 20.4634 39.5396 20.4634 38.3784ZM10.6938 31.2515H20.4634V15.7563H20.2832C16.8799 20.7812 13.3164 26.5068 10.6938 31.0513V31.2515Z" fill="#211C1D"/>
<path d="M16.2375 68C16.0275 68 15.8572 67.8365 15.8572 67.6348C15.8572 67.2053 16.9342 64.3825 17.1943 62.4832C17.2256 62.2548 16.9357 62.1637 16.8047 62.3495C16.177 63.2399 15.5441 64.1922 13.8225 64.2149C10.615 64.2572 8.76719 61.2101 9.77613 58.4373C10.2708 57.0778 17.0754 48 18 48C18.9245 48 25.7292 57.0778 26.2239 58.4373C27.2328 61.2101 25.385 64.2572 22.1775 64.2149C20.4559 64.1922 19.823 63.2399 19.1953 62.3495C19.0643 62.1637 18.7744 62.2548 18.8057 62.4832C19.0658 64.3825 20.1428 67.2053 20.1428 67.6348C20.1428 67.8365 19.9725 68 19.7625 68H16.2375Z" fill="#211C1D"/>
</svg>
