<svg width="35" height="73" viewBox="0 0 35 73" fill="none" xmlns="http://www.w3.org/2000/svg">
<path d="M9.23193 38.1382C9.23193 37.4175 9.57227 36.8569 10.7534 35.5156L19.0815 25.9863C21.3438 23.4038 22.2046 21.7222 22.2046 19.8403C22.2046 17.0176 20.1826 15.1357 17.1396 15.1357C14.5571 15.1357 12.6553 16.6772 12.0547 19.2798C11.7744 20.3408 11.2139 20.8813 10.3931 20.8813C9.41211 20.8813 8.77148 20.1406 8.77148 19.0596C8.77148 15.6562 12.0747 12.0928 17.3599 12.0928C22.2847 12.0928 25.748 15.2158 25.748 19.6201C25.748 22.2227 24.7271 24.1245 21.1235 28.2285L13.7163 36.6968V36.937H24.8271C25.8882 36.937 26.5688 37.5176 26.5688 38.4785C26.5688 39.4194 25.9282 40 24.8271 40H11.6143C10.1528 40 9.23193 39.2993 9.23193 38.1382Z" fill="#211C1D"/>
<path d="M16.0324 68C15.815 68 15.6387 67.826 15.6387 67.6115C15.6387 66.8912 16.9316 64.2013 17.1901 62.0959C17.2179 61.8695 16.886 61.7854 16.7639 61.9791C16.0982 63.0359 15.1904 64.515 12.9784 64.4633L12.9355 64.4647C12.9068 64.4656 12.8781 64.4666 12.8492 64.4666C10.4471 64.4666 8.5 62.3541 8.5 59.7483C8.5 57.1425 10.4471 55.03 12.8492 55.03C13.3182 55.03 13.7697 55.1108 14.1928 55.26C14.2915 55.2948 14.3921 55.1811 14.3431 55.0897C13.9682 54.3927 13.7531 53.5823 13.7531 52.717C13.7531 50.1483 15.625 48 18 48C20.375 48 22.2469 50.1483 22.2469 52.717C22.2469 53.5823 22.0318 54.3927 21.6569 55.0897C21.6079 55.1811 21.7085 55.2948 21.8072 55.26C22.2303 55.1108 22.6818 55.03 23.1508 55.03C25.5529 55.03 27.5 57.1425 27.5 59.7483C27.5 62.3541 25.5529 64.4666 23.1508 64.4666C23.1219 64.4666 23.0932 64.4656 23.0645 64.4647L23.0216 64.4633C20.8096 64.515 19.9018 63.0359 19.2361 61.9791C19.114 61.7854 18.7821 61.8695 18.8099 62.0959C19.0684 64.2013 20.3613 66.8913 20.3613 67.6114C20.3613 67.826 20.185 68 19.9676 68H16.0324Z" fill="#211C1D"/>
</svg>
