<svg width="35" height="73" viewBox="0 0 35 73" fill="none" xmlns="http://www.w3.org/2000/svg">
<path d="M16.9199 40.5806C11.2744 40.5806 7.35059 37.2974 7.35059 32.5728C7.35059 29.2695 9.57275 26.4868 12.876 25.686V25.4858C10.1934 24.605 8.43164 22.1826 8.43164 19.3999C8.43164 15.1958 12.0352 12.0928 17 12.0928C21.9648 12.0928 25.5884 15.1958 25.5884 19.3999C25.5884 22.1426 23.7666 24.605 21.124 25.4858V25.686C24.3872 26.4668 26.6294 29.2695 26.6294 32.5327C26.6294 37.2373 22.5854 40.5806 16.9199 40.5806ZM17 24.3047C20.043 24.3047 22.1851 22.3628 22.1851 19.6401C22.1851 16.9375 20.063 15.0557 17 15.0557C13.957 15.0557 11.8149 16.9575 11.8149 19.6401C11.8149 22.3428 13.9771 24.3047 17 24.3047ZM17 37.6577C20.6235 37.6577 23.2261 35.4756 23.2261 32.4326C23.2261 29.3896 20.6235 27.1675 17 27.1675C13.3765 27.1675 10.7739 29.3696 10.7739 32.4326C10.7739 35.4756 13.3765 37.6577 17 37.6577Z" fill="#BC1E24"/>
<path d="M18.1801 48.104C18.1038 47.9653 17.8962 47.9653 17.8199 48.104C15.5263 52.2724 13.8722 54.4782 10.5553 57.8648C10.4816 57.9401 10.4816 58.0599 10.5553 58.1352C13.8722 61.5218 15.5263 63.7276 17.8199 67.896C17.8962 68.0347 18.1038 68.0347 18.1801 67.896C20.4737 63.7276 22.1278 61.5218 25.4447 58.1352C25.5184 58.0599 25.5184 57.9401 25.4447 57.8648C22.1278 54.4782 20.4737 52.2724 18.1801 48.104Z" fill="#BC1E24"/>
</svg>
