<svg width="35" height="73" viewBox="0 0 35 73" fill="none" xmlns="http://www.w3.org/2000/svg">
<path d="M11.5347 38.7588C11.5347 38.3184 11.6748 37.938 11.895 37.4976L22.0049 15.9365V15.7363H9.59277C8.35156 15.7363 7.75098 15.0957 7.75098 14.2148C7.75098 13.314 8.35156 12.6733 9.59277 12.6733H23.8467C24.8877 12.6733 25.7485 13.394 25.7485 14.5752C25.7485 15.1357 25.4683 16.0566 25.0278 16.9976L14.8179 39.0391C14.4375 39.8398 13.957 40.3203 13.1162 40.3203C12.2954 40.3203 11.5347 39.6997 11.5347 38.7588Z" fill="#BC1E24"/>
<path d="M13.7347 49.0006C16.4518 49.042 17.5069 51.3984 17.8537 52.5094C17.8888 52.6218 18.1122 52.6217 18.1472 52.5093C18.4938 51.3983 19.5482 49.042 22.2653 49.0006C25.8229 48.9462 28.4995 52.9292 26.0587 56.9289C23.8832 60.4939 18.0821 67 18 67C17.9165 67 12.1169 60.4943 9.94127 56.9289C7.50053 52.9291 10.177 48.9462 13.7347 49.0006Z" fill="#BC1E24"/>
</svg>
