<svg width="35" height="73" viewBox="0 0 35 73" fill="none" xmlns="http://www.w3.org/2000/svg">
<path d="M16.9199 40.5806C11.2744 40.5806 7.35059 37.2974 7.35059 32.5728C7.35059 29.2695 9.57275 26.4868 12.876 25.686V25.4858C10.1934 24.605 8.43164 22.1826 8.43164 19.3999C8.43164 15.1958 12.0352 12.0928 17 12.0928C21.9648 12.0928 25.5884 15.1958 25.5884 19.3999C25.5884 22.1426 23.7666 24.605 21.124 25.4858V25.686C24.3872 26.4668 26.6294 29.2695 26.6294 32.5327C26.6294 37.2373 22.5854 40.5806 16.9199 40.5806ZM17 24.3047C20.043 24.3047 22.1851 22.3628 22.1851 19.6401C22.1851 16.9375 20.063 15.0557 17 15.0557C13.957 15.0557 11.8149 16.9575 11.8149 19.6401C11.8149 22.3428 13.9771 24.3047 17 24.3047ZM17 37.6577C20.6235 37.6577 23.2261 35.4756 23.2261 32.4326C23.2261 29.3896 20.6235 27.1675 17 27.1675C13.3765 27.1675 10.7739 29.3696 10.7739 32.4326C10.7739 35.4756 13.3765 37.6577 17 37.6577Z" fill="#BC1E24"/>
<path d="M13.7347 49.0006C16.4518 49.042 17.5069 51.3984 17.8537 52.5094C17.8888 52.6218 18.1122 52.6217 18.1472 52.5093C18.4938 51.3983 19.5482 49.042 22.2653 49.0006C25.8229 48.9462 28.4995 52.9292 26.0587 56.9289C23.8832 60.4939 18.0821 67 18 67C17.9165 67 12.1169 60.4943 9.94127 56.9289C7.50053 52.9291 10.177 48.9462 13.7347 49.0006Z" fill="#BC1E24"/>
</svg>
