<svg width="35" height="73" viewBox="0 0 35 73" fill="none" xmlns="http://www.w3.org/2000/svg">
<path d="M8.95166 35.936C8.95166 35.0352 9.57227 34.4546 10.4331 34.4546C10.9736 34.4546 11.394 34.6948 12.1348 35.4155C13.5962 36.8569 15.0776 37.5176 16.9194 37.5176C21.4438 37.5176 23.7461 33.3735 23.7461 26.1665H23.5659C22.5649 28.8691 20.0024 30.4907 16.7393 30.4907C11.6143 30.4907 8.05078 26.7271 8.05078 21.3218C8.05078 15.7563 11.8345 12.0527 17.52 12.0527C23.7861 12.0527 27.1294 16.9375 27.1294 26.0063C27.1294 35.5557 23.666 40.5205 16.9795 40.5205C14.7773 40.5205 12.6953 39.96 11.1338 38.939C9.79248 38.0581 8.95166 36.937 8.95166 35.936ZM23.1455 21.4019C23.1455 17.6582 20.7832 15.0957 17.3198 15.0957C13.8765 15.0957 11.5142 17.6582 11.5142 21.3818C11.5142 25.0254 13.8364 27.4678 17.3198 27.4678C20.8232 27.4678 23.1455 25.0454 23.1455 21.4019Z" fill="#211C1D"/>
<path d="M16.2375 68C16.0275 68 15.8572 67.8365 15.8572 67.6348C15.8572 67.2053 16.9342 64.3825 17.1943 62.4832C17.2256 62.2548 16.9357 62.1637 16.8047 62.3495C16.177 63.2399 15.5441 64.1922 13.8225 64.2149C10.615 64.2572 8.76719 61.2101 9.77613 58.4373C10.2708 57.0778 17.0754 48 18 48C18.9245 48 25.7292 57.0778 26.2239 58.4373C27.2328 61.2101 25.385 64.2572 22.1775 64.2149C20.4559 64.1922 19.823 63.2399 19.1953 62.3495C19.0643 62.1637 18.7744 62.2548 18.8057 62.4832C19.0658 64.3825 20.1428 67.2053 20.1428 67.6348C20.1428 67.8365 19.9725 68 19.7625 68H16.2375Z" fill="#211C1D"/>
</svg>
