<svg width="35" height="73" viewBox="0 0 35 73" fill="none" xmlns="http://www.w3.org/2000/svg">
<path d="M19.9229 14.415C19.9229 13.2139 20.5835 12.4731 21.6646 12.4731C22.7456 12.4731 23.4263 13.2139 23.4263 14.415V32.1924C23.4263 37.3774 20.4233 40.5806 15.5986 40.5806C12.9961 40.5806 10.9341 39.7998 9.5127 38.3184C8.5918 37.3574 8.03125 36.1562 8.03125 35.0752C8.03125 34.0342 8.5918 33.3936 9.49268 33.3936C10.1934 33.3936 10.5737 33.7339 11.0942 34.7549C11.9551 36.5166 13.4365 37.4375 15.4585 37.4375C18.2812 37.4375 19.9229 35.5757 19.9229 32.3325V14.415Z" fill="#211C1D"/>
<path d="M16.2375 68C16.0275 68 15.8572 67.8365 15.8572 67.6348C15.8572 67.2053 16.9342 64.3825 17.1943 62.4832C17.2256 62.2548 16.9357 62.1637 16.8047 62.3495C16.177 63.2399 15.5441 64.1922 13.8225 64.2149C10.615 64.2572 8.76719 61.2101 9.77613 58.4373C10.2708 57.0778 17.0754 48 18 48C18.9245 48 25.7292 57.0778 26.2239 58.4373C27.2328 61.2101 25.385 64.2572 22.1775 64.2149C20.4559 64.1922 19.823 63.2399 19.1953 62.3495C19.0643 62.1637 18.7744 62.2548 18.8057 62.4832C19.0658 64.3825 20.1428 67.2053 20.1428 67.6348C20.1428 67.8365 19.9725 68 19.7625 68H16.2375Z" fill="#211C1D"/>
</svg>
