<svg width="35" height="73" viewBox="0 0 35 73" fill="none" xmlns="http://www.w3.org/2000/svg">
<path d="M8.03076 27.1274C8.03076 17.498 11.7344 12.1528 18.3809 12.1528C20.5229 12.1528 22.585 12.7334 24.1064 13.7744C25.4277 14.6353 26.2285 15.7363 26.2285 16.6572C26.2285 17.5181 25.6079 18.1587 24.7471 18.1587C24.1865 18.1587 23.7661 17.9385 23.0454 17.2378C21.604 15.8164 20.1025 15.1758 18.3208 15.1758C13.8564 15.1758 11.4941 19.0996 11.4341 26.5869H11.5942C12.5151 24.1445 15.3779 22.4229 18.501 22.4229C23.5859 22.4229 27.1494 26.0864 27.1494 31.3115C27.1494 36.8169 23.3857 40.5605 17.8203 40.5605C14.437 40.5605 11.7344 39.1592 10.0928 36.5767C8.71143 34.3745 8.03076 31.2715 8.03076 27.1274ZM11.9346 31.4316C11.9346 35.0151 14.417 37.5576 17.9604 37.5576C21.4038 37.5576 23.7061 35.1353 23.7061 31.4517C23.7061 27.8081 21.3838 25.4058 17.8203 25.4058C14.3569 25.4058 11.9346 27.8882 11.9346 31.4316Z" fill="#BC1E24"/>
<path d="M13.7347 49.0006C16.4518 49.042 17.5069 51.3984 17.8537 52.5094C17.8888 52.6218 18.1122 52.6217 18.1472 52.5093C18.4938 51.3983 19.5482 49.042 22.2653 49.0006C25.8229 48.9462 28.4995 52.9292 26.0587 56.9289C23.8832 60.4939 18.0821 67 18 67C17.9165 67 12.1169 60.4943 9.94127 56.9289C7.50053 52.9291 10.177 48.9462 13.7347 49.0006Z" fill="#BC1E24"/>
</svg>
