<svg width="35" height="73" viewBox="0 0 35 73" fill="none" xmlns="http://www.w3.org/2000/svg">
<path d="M8.11133 34.5547C8.11133 33.5537 8.69189 32.873 9.57275 32.873C10.2534 32.873 10.6938 33.2334 11.2144 34.2544C12.3154 36.3965 14.1572 37.5576 16.5596 37.5576C20.2031 37.5576 22.7456 34.9951 22.7456 31.3115C22.7456 27.7881 20.2832 25.3057 16.8198 25.3057C15.2583 25.3057 13.877 25.8262 12.7158 26.8672C11.2544 28.2285 10.854 28.4688 10.2134 28.4688C9.07227 28.4688 8.4917 27.5679 8.5918 26.0264L9.47266 14.8154C9.59277 13.334 10.4536 12.6333 12.1753 12.6333H23.4062C24.5674 12.6333 25.248 13.2139 25.248 14.1948C25.248 15.1558 24.5874 15.6963 23.4062 15.6963H12.6157L11.855 24.605H12.0552C12.9561 23.2637 15.2983 22.3027 17.6006 22.3027C22.6855 22.3027 26.269 25.9463 26.269 31.1313C26.269 36.6567 22.2852 40.5806 16.6997 40.5806C11.4146 40.5806 8.11133 37.3574 8.11133 34.5547Z" fill="#BC1E24"/>
<path d="M13.7347 49.0006C16.4518 49.042 17.5069 51.3984 17.8537 52.5094C17.8888 52.6218 18.1122 52.6217 18.1472 52.5093C18.4938 51.3983 19.5482 49.042 22.2653 49.0006C25.8229 48.9462 28.4995 52.9292 26.0587 56.9289C23.8832 60.4939 18.0821 67 18 67C17.9165 67 12.1169 60.4943 9.94127 56.9289C7.50053 52.9291 10.177 48.9462 13.7347 49.0006Z" fill="#BC1E24"/>
</svg>
