<svg width="35" height="73" viewBox="0 0 35 73" fill="none" xmlns="http://www.w3.org/2000/svg">
<path d="M8.03076 27.1274C8.03076 17.498 11.7344 12.1528 18.3809 12.1528C20.5229 12.1528 22.585 12.7334 24.1064 13.7744C25.4277 14.6353 26.2285 15.7363 26.2285 16.6572C26.2285 17.5181 25.6079 18.1587 24.7471 18.1587C24.1865 18.1587 23.7661 17.9385 23.0454 17.2378C21.604 15.8164 20.1025 15.1758 18.3208 15.1758C13.8564 15.1758 11.4941 19.0996 11.4341 26.5869H11.5942C12.5151 24.1445 15.3779 22.4229 18.501 22.4229C23.5859 22.4229 27.1494 26.0864 27.1494 31.3115C27.1494 36.8169 23.3857 40.5605 17.8203 40.5605C14.437 40.5605 11.7344 39.1592 10.0928 36.5767C8.71143 34.3745 8.03076 31.2715 8.03076 27.1274ZM11.9346 31.4316C11.9346 35.0151 14.417 37.5576 17.9604 37.5576C21.4038 37.5576 23.7061 35.1353 23.7061 31.4517C23.7061 27.8081 21.3838 25.4058 17.8203 25.4058C14.3569 25.4058 11.9346 27.8882 11.9346 31.4316Z" fill="#BC1E24"/>
<path d="M18.1801 48.104C18.1038 47.9653 17.8962 47.9653 17.8199 48.104C15.5263 52.2724 13.8722 54.4782 10.5553 57.8648C10.4816 57.9401 10.4816 58.0599 10.5553 58.1352C13.8722 61.5218 15.5263 63.7276 17.8199 67.896C17.8962 68.0347 18.1038 68.0347 18.1801 67.896C20.4737 63.7276 22.1278 61.5218 25.4447 58.1352C25.5184 58.0599 25.5184 57.9401 25.4447 57.8648C22.1278 54.4782 20.4737 52.2724 18.1801 48.104Z" fill="#BC1E24"/>
</svg>
