<svg width="35" height="73" viewBox="0 0 35 73" fill="none" xmlns="http://www.w3.org/2000/svg">
<path d="M8.95166 35.936C8.95166 35.0352 9.57227 34.4546 10.4331 34.4546C10.9736 34.4546 11.394 34.6948 12.1348 35.4155C13.5962 36.8569 15.0776 37.5176 16.9194 37.5176C21.4438 37.5176 23.7461 33.3735 23.7461 26.1665H23.5659C22.5649 28.8691 20.0024 30.4907 16.7393 30.4907C11.6143 30.4907 8.05078 26.7271 8.05078 21.3218C8.05078 15.7563 11.8345 12.0527 17.52 12.0527C23.7861 12.0527 27.1294 16.9375 27.1294 26.0063C27.1294 35.5557 23.666 40.5205 16.9795 40.5205C14.7773 40.5205 12.6953 39.96 11.1338 38.939C9.79248 38.0581 8.95166 36.937 8.95166 35.936ZM23.1455 21.4019C23.1455 17.6582 20.7832 15.0957 17.3198 15.0957C13.8765 15.0957 11.5142 17.6582 11.5142 21.3818C11.5142 25.0254 13.8364 27.4678 17.3198 27.4678C20.8232 27.4678 23.1455 25.0454 23.1455 21.4019Z" fill="#BC1E24"/>
<path d="M13.7347 49.0006C16.4518 49.042 17.5069 51.3984 17.8537 52.5094C17.8888 52.6218 18.1122 52.6217 18.1472 52.5093C18.4938 51.3983 19.5482 49.042 22.2653 49.0006C25.8229 48.9462 28.4995 52.9292 26.0587 56.9289C23.8832 60.4939 18.0821 67 18 67C17.9165 67 12.1169 60.4943 9.94127 56.9289C7.50053 52.9291 10.177 48.9462 13.7347 49.0006Z" fill="#BC1E24"/>
</svg>
