<svg width="35" height="73" viewBox="0 0 35 73" fill="none" xmlns="http://www.w3.org/2000/svg">
<path d="M8.19092 40.2603C7.18994 40.2603 6.5293 39.6797 6.5293 38.7588C6.5293 38.3584 6.62939 37.978 6.78955 37.4976L15.0176 14.4951C15.5181 13.0938 16.2188 12.4531 17.5 12.4531C18.7812 12.4531 19.4819 13.0938 19.9824 14.4951L28.2104 37.4976C28.3706 37.938 28.4707 38.3584 28.4707 38.7388C28.4707 39.6797 27.8101 40.2603 26.7891 40.2603C25.8281 40.2603 25.2876 39.7998 24.9072 38.6187L22.605 31.792H12.375L10.0728 38.6187C9.69238 39.8198 9.15186 40.2603 8.19092 40.2603ZM13.3159 28.9692H21.6641L17.5601 16.7974H17.4199L13.3159 28.9692Z" fill="#211C1D"/>
<path d="M16.2375 68C16.0275 68 15.8572 67.8365 15.8572 67.6348C15.8572 67.2053 16.9342 64.3825 17.1943 62.4832C17.2256 62.2548 16.9357 62.1637 16.8047 62.3495C16.177 63.2399 15.5441 64.1922 13.8225 64.2149C10.615 64.2572 8.76719 61.2101 9.77613 58.4373C10.2708 57.0778 17.0754 48 18 48C18.9245 48 25.7292 57.0778 26.2239 58.4373C27.2328 61.2101 25.385 64.2572 22.1775 64.2149C20.4559 64.1922 19.823 63.2399 19.1953 62.3495C19.0643 62.1637 18.7744 62.2548 18.8057 62.4832C19.0658 64.3825 20.1428 67.2053 20.1428 67.6348C20.1428 67.8365 19.9725 68 19.7625 68H16.2375Z" fill="#211C1D"/>
</svg>
