<svg width="35" height="73" viewBox="0 0 35 73" fill="none" xmlns="http://www.w3.org/2000/svg">
<path d="M8.31104 34.3945C8.31104 33.4937 8.93164 32.853 9.8125 32.853C10.5132 32.853 10.9536 33.2134 11.4741 34.2344C12.5151 36.3765 14.5972 37.5776 17.3198 37.5776C20.9033 37.5776 23.1855 35.6157 23.1855 32.5527C23.1855 29.4897 20.8433 27.4277 17.3599 27.4277H14.8574C13.9365 27.4277 13.2559 26.7671 13.2559 25.9062C13.2559 25.0254 13.8965 24.4048 14.8574 24.4048H17.2197C20.1426 24.4048 22.2646 22.4229 22.2646 19.6802C22.2646 16.9375 20.2026 15.0957 17.1396 15.0957C14.7573 15.0957 12.9556 16.2769 12.1548 18.3389C11.7544 19.4399 11.2539 19.8604 10.4731 19.8604C9.55225 19.8604 8.95166 19.1997 8.95166 18.1987C8.95166 15.0957 12.2949 12.0928 17.2197 12.0928C22.2246 12.0928 25.7881 15.0757 25.7881 19.2397C25.7881 22.2627 23.5259 25.1455 20.7432 25.626V25.8262C24.1265 26.2065 26.709 29.1694 26.709 32.6128C26.709 37.2974 22.8252 40.5806 17.2598 40.5806C12.0947 40.5806 8.31104 37.4575 8.31104 34.3945Z" fill="#BC1E24"/>
<path d="M13.7347 49.0006C16.4518 49.042 17.5069 51.3984 17.8537 52.5094C17.8888 52.6218 18.1122 52.6217 18.1472 52.5093C18.4938 51.3983 19.5482 49.042 22.2653 49.0006C25.8229 48.9462 28.4995 52.9292 26.0587 56.9289C23.8832 60.4939 18.0821 67 18 67C17.9165 67 12.1169 60.4943 9.94127 56.9289C7.50053 52.9291 10.177 48.9462 13.7347 49.0006Z" fill="#BC1E24"/>
</svg>
