<svg width="35" height="73" viewBox="0 0 35 73" fill="none" xmlns="http://www.w3.org/2000/svg">
<path d="M9.23193 38.1382C9.23193 37.4175 9.57227 36.8569 10.7534 35.5156L19.0815 25.9863C21.3438 23.4038 22.2046 21.7222 22.2046 19.8403C22.2046 17.0176 20.1826 15.1357 17.1396 15.1357C14.5571 15.1357 12.6553 16.6772 12.0547 19.2798C11.7744 20.3408 11.2139 20.8813 10.3931 20.8813C9.41211 20.8813 8.77148 20.1406 8.77148 19.0596C8.77148 15.6562 12.0747 12.0928 17.3599 12.0928C22.2847 12.0928 25.748 15.2158 25.748 19.6201C25.748 22.2227 24.7271 24.1245 21.1235 28.2285L13.7163 36.6968V36.937H24.8271C25.8882 36.937 26.5688 37.5176 26.5688 38.4785C26.5688 39.4194 25.9282 40 24.8271 40H11.6143C10.1528 40 9.23193 39.2993 9.23193 38.1382Z" fill="#BC1E24"/>
<path d="M18.1801 48.104C18.1038 47.9653 17.8962 47.9653 17.8199 48.104C15.5263 52.2724 13.8722 54.4782 10.5553 57.8648C10.4816 57.9401 10.4816 58.0599 10.5553 58.1352C13.8722 61.5218 15.5263 63.7276 17.8199 67.896C17.8962 68.0347 18.1038 68.0347 18.1801 67.896C20.4737 63.7276 22.1278 61.5218 25.4447 58.1352C25.5184 58.0599 25.5184 57.9401 25.4447 57.8648C22.1278 54.4782 20.4737 52.2724 18.1801 48.104Z" fill="#BC1E24"/>
</svg>
