<svg width="35" height="73" viewBox="0 0 35 73" fill="none" xmlns="http://www.w3.org/2000/svg">
<path d="M7.47871 40.2002C6.39766 40.2002 5.73701 39.4595 5.73701 38.2783V14.395C5.73701 13.2139 6.39766 12.4731 7.47871 12.4731C8.55977 12.4731 9.24043 13.2139 9.24043 14.395V38.2783C9.24043 39.4595 8.55977 40.2002 7.47871 40.2002ZM10.2454 26.8672V25.8662C10.2454 17.5781 13.7889 12.0928 19.9749 12.0928C26.1609 12.0928 29.6844 17.5781 29.6844 25.8662V26.8672C29.6844 35.1353 26.1409 40.5806 19.9549 40.5806C13.7889 40.5806 10.2454 35.1553 10.2454 26.8672ZM13.7488 25.8862V26.8271C13.7488 33.4937 16.1312 37.5576 19.9749 37.5576C23.8187 37.5576 26.201 33.4937 26.201 26.8271V25.8862C26.201 19.2197 23.7986 15.1357 19.9549 15.1357C16.1312 15.1357 13.7488 19.2197 13.7488 25.8862Z" fill="#BC1E24"/>
<path d="M13.7347 49.0006C16.4518 49.042 17.5069 51.3984 17.8537 52.5094C17.8888 52.6218 18.1122 52.6217 18.1472 52.5093C18.4938 51.3983 19.5482 49.042 22.2653 49.0006C25.8229 48.9462 28.4995 52.9292 26.0587 56.9289C23.8832 60.4939 18.0821 67 18 67C17.9165 67 12.1169 60.4943 9.94127 56.9289C7.50053 52.9291 10.177 48.9462 13.7347 49.0006Z" fill="#BC1E24"/>
</svg>
