<svg width="35" height="73" viewBox="0 0 35 73" fill="none" xmlns="http://www.w3.org/2000/svg">
<path d="M16.9199 40.5806C11.2744 40.5806 7.35059 37.2974 7.35059 32.5728C7.35059 29.2695 9.57275 26.4868 12.876 25.686V25.4858C10.1934 24.605 8.43164 22.1826 8.43164 19.3999C8.43164 15.1958 12.0352 12.0928 17 12.0928C21.9648 12.0928 25.5884 15.1958 25.5884 19.3999C25.5884 22.1426 23.7666 24.605 21.124 25.4858V25.686C24.3872 26.4668 26.6294 29.2695 26.6294 32.5327C26.6294 37.2373 22.5854 40.5806 16.9199 40.5806ZM17 24.3047C20.043 24.3047 22.1851 22.3628 22.1851 19.6401C22.1851 16.9375 20.063 15.0557 17 15.0557C13.957 15.0557 11.8149 16.9575 11.8149 19.6401C11.8149 22.3428 13.9771 24.3047 17 24.3047ZM17 37.6577C20.6235 37.6577 23.2261 35.4756 23.2261 32.4326C23.2261 29.3896 20.6235 27.1675 17 27.1675C13.3765 27.1675 10.7739 29.3696 10.7739 32.4326C10.7739 35.4756 13.3765 37.6577 17 37.6577Z" fill="#211C1D"/>
<path d="M16.2375 68C16.0275 68 15.8572 67.8365 15.8572 67.6348C15.8572 67.2053 16.9342 64.3825 17.1943 62.4832C17.2256 62.2548 16.9357 62.1637 16.8047 62.3495C16.177 63.2399 15.5441 64.1922 13.8225 64.2149C10.615 64.2572 8.76719 61.2101 9.77613 58.4373C10.2708 57.0778 17.0754 48 18 48C18.9245 48 25.7292 57.0778 26.2239 58.4373C27.2328 61.2101 25.385 64.2572 22.1775 64.2149C20.4559 64.1922 19.823 63.2399 19.1953 62.3495C19.0643 62.1637 18.7744 62.2548 18.8057 62.4832C19.0658 64.3825 20.1428 67.2053 20.1428 67.6348C20.1428 67.8365 19.9725 68 19.7625 68H16.2375Z" fill="#211C1D"/>
</svg>
