<svg width="35" height="73" viewBox="0 0 35 73" fill="none" xmlns="http://www.w3.org/2000/svg">
<path d="M25.7485 40.0601C25.0479 40.0601 24.4473 39.6597 23.7466 38.6787L15.3584 26.8071L11.915 30.3706V38.2783C11.915 39.4595 11.2344 40.2002 10.1533 40.2002C9.07227 40.2002 8.41162 39.4595 8.41162 38.2783V14.395C8.41162 13.2139 9.07227 12.4731 10.1533 12.4731C11.2344 12.4731 11.915 13.2139 11.915 14.395V25.8462H12.0752L23.4663 13.6943C24.207 12.8735 24.6675 12.6133 25.248 12.6133C26.1289 12.6133 26.7896 13.2939 26.7896 14.1348C26.7896 14.6553 26.6294 14.9556 25.8286 15.7964L17.9609 24.4048L26.5293 36.2964C27.3701 37.4575 27.5503 37.8179 27.5503 38.3384C27.5503 39.3594 26.8096 40.0601 25.7485 40.0601Z" fill="#211C1D"/>
<path d="M16.2375 68C16.0275 68 15.8572 67.8365 15.8572 67.6348C15.8572 67.2053 16.9342 64.3825 17.1943 62.4832C17.2256 62.2548 16.9357 62.1637 16.8047 62.3495C16.177 63.2399 15.5441 64.1922 13.8225 64.2149C10.615 64.2572 8.76719 61.2101 9.77613 58.4373C10.2708 57.0778 17.0754 48 18 48C18.9245 48 25.7292 57.0778 26.2239 58.4373C27.2328 61.2101 25.385 64.2572 22.1775 64.2149C20.4559 64.1922 19.823 63.2399 19.1953 62.3495C19.0643 62.1637 18.7744 62.2548 18.8057 62.4832C19.0658 64.3825 20.1428 67.2053 20.1428 67.6348C20.1428 67.8365 19.9725 68 19.7625 68H16.2375Z" fill="#211C1D"/>
</svg>
