<svg width="35" height="73" viewBox="0 0 35 73" fill="none" xmlns="http://www.w3.org/2000/svg">
<path d="M16.9199 40.5806C11.2744 40.5806 7.35059 37.2974 7.35059 32.5728C7.35059 29.2695 9.57275 26.4868 12.876 25.686V25.4858C10.1934 24.605 8.43164 22.1826 8.43164 19.3999C8.43164 15.1958 12.0352 12.0928 17 12.0928C21.9648 12.0928 25.5884 15.1958 25.5884 19.3999C25.5884 22.1426 23.7666 24.605 21.124 25.4858V25.686C24.3872 26.4668 26.6294 29.2695 26.6294 32.5327C26.6294 37.2373 22.5854 40.5806 16.9199 40.5806ZM17 24.3047C20.043 24.3047 22.1851 22.3628 22.1851 19.6401C22.1851 16.9375 20.063 15.0557 17 15.0557C13.957 15.0557 11.8149 16.9575 11.8149 19.6401C11.8149 22.3428 13.9771 24.3047 17 24.3047ZM17 37.6577C20.6235 37.6577 23.2261 35.4756 23.2261 32.4326C23.2261 29.3896 20.6235 27.1675 17 27.1675C13.3765 27.1675 10.7739 29.3696 10.7739 32.4326C10.7739 35.4756 13.3765 37.6577 17 37.6577Z" fill="#211C1D"/>
<path d="M16.0324 68C15.815 68 15.6387 67.826 15.6387 67.6115C15.6387 66.8912 16.9316 64.2013 17.1901 62.0959C17.2179 61.8695 16.886 61.7854 16.7639 61.9791C16.0982 63.0359 15.1904 64.515 12.9784 64.4633L12.9355 64.4647C12.9068 64.4656 12.8781 64.4666 12.8492 64.4666C10.4471 64.4666 8.5 62.3541 8.5 59.7483C8.5 57.1425 10.4471 55.03 12.8492 55.03C13.3182 55.03 13.7697 55.1108 14.1928 55.26C14.2915 55.2948 14.3921 55.1811 14.3431 55.0897C13.9682 54.3927 13.7531 53.5823 13.7531 52.717C13.7531 50.1483 15.625 48 18 48C20.375 48 22.2469 50.1483 22.2469 52.717C22.2469 53.5823 22.0318 54.3927 21.6569 55.0897C21.6079 55.1811 21.7085 55.2948 21.8072 55.26C22.2303 55.1108 22.6818 55.03 23.1508 55.03C25.5529 55.03 27.5 57.1425 27.5 59.7483C27.5 62.3541 25.5529 64.4666 23.1508 64.4666C23.1219 64.4666 23.0932 64.4656 23.0645 64.4647L23.0216 64.4633C20.8096 64.515 19.9018 63.0359 19.2361 61.9791C19.114 61.7854 18.7821 61.8695 18.8099 62.0959C19.0684 64.2013 20.3613 66.8913 20.3613 67.6114C20.3613 67.826 20.185 68 19.9676 68H16.0324Z" fill="#211C1D"/>
</svg>
