<svg width="35" height="73" viewBox="0 0 35 73" fill="none" xmlns="http://www.w3.org/2000/svg">
<path d="M9.23193 38.1382C9.23193 37.4175 9.57227 36.8569 10.7534 35.5156L19.0815 25.9863C21.3438 23.4038 22.2046 21.7222 22.2046 19.8403C22.2046 17.0176 20.1826 15.1357 17.1396 15.1357C14.5571 15.1357 12.6553 16.6772 12.0547 19.2798C11.7744 20.3408 11.2139 20.8813 10.3931 20.8813C9.41211 20.8813 8.77148 20.1406 8.77148 19.0596C8.77148 15.6562 12.0747 12.0928 17.3599 12.0928C22.2847 12.0928 25.748 15.2158 25.748 19.6201C25.748 22.2227 24.7271 24.1245 21.1235 28.2285L13.7163 36.6968V36.937H24.8271C25.8882 36.937 26.5688 37.5176 26.5688 38.4785C26.5688 39.4194 25.9282 40 24.8271 40H11.6143C10.1528 40 9.23193 39.2993 9.23193 38.1382Z" fill="#211C1D"/>
<path d="M16.2375 68C16.0275 68 15.8572 67.8365 15.8572 67.6348C15.8572 67.2053 16.9342 64.3825 17.1943 62.4832C17.2256 62.2548 16.9357 62.1637 16.8047 62.3495C16.177 63.2399 15.5441 64.1922 13.8225 64.2149C10.615 64.2572 8.76719 61.2101 9.77613 58.4373C10.2708 57.0778 17.0754 48 18 48C18.9245 48 25.7292 57.0778 26.2239 58.4373C27.2328 61.2101 25.385 64.2572 22.1775 64.2149C20.4559 64.1922 19.823 63.2399 19.1953 62.3495C19.0643 62.1637 18.7744 62.2548 18.8057 62.4832C19.0658 64.3825 20.1428 67.2053 20.1428 67.6348C20.1428 67.8365 19.9725 68 19.7625 68H16.2375Z" fill="#211C1D"/>
</svg>
