<svg width="35" height="73" viewBox="0 0 35 73" fill="none" xmlns="http://www.w3.org/2000/svg">
<path d="M8.19092 40.2603C7.18994 40.2603 6.5293 39.6797 6.5293 38.7588C6.5293 38.3584 6.62939 37.978 6.78955 37.4976L15.0176 14.4951C15.5181 13.0938 16.2188 12.4531 17.5 12.4531C18.7812 12.4531 19.4819 13.0938 19.9824 14.4951L28.2104 37.4976C28.3706 37.938 28.4707 38.3584 28.4707 38.7388C28.4707 39.6797 27.8101 40.2603 26.7891 40.2603C25.8281 40.2603 25.2876 39.7998 24.9072 38.6187L22.605 31.792H12.375L10.0728 38.6187C9.69238 39.8198 9.15186 40.2603 8.19092 40.2603ZM13.3159 28.9692H21.6641L17.5601 16.7974H17.4199L13.3159 28.9692Z" fill="#211C1D"/>
<path d="M16.0324 68C15.815 68 15.6387 67.826 15.6387 67.6115C15.6387 66.8912 16.9316 64.2013 17.1901 62.0959C17.2179 61.8695 16.886 61.7854 16.7639 61.9791C16.0982 63.0359 15.1904 64.515 12.9784 64.4633L12.9355 64.4647C12.9068 64.4656 12.8781 64.4666 12.8492 64.4666C10.4471 64.4666 8.5 62.3541 8.5 59.7483C8.5 57.1425 10.4471 55.03 12.8492 55.03C13.3182 55.03 13.7697 55.1108 14.1928 55.26C14.2915 55.2948 14.3921 55.1811 14.3431 55.0897C13.9682 54.3927 13.7531 53.5823 13.7531 52.717C13.7531 50.1483 15.625 48 18 48C20.375 48 22.2469 50.1483 22.2469 52.717C22.2469 53.5823 22.0318 54.3927 21.6569 55.0897C21.6079 55.1811 21.7085 55.2948 21.8072 55.26C22.2303 55.1108 22.6818 55.03 23.1508 55.03C25.5529 55.03 27.5 57.1425 27.5 59.7483C27.5 62.3541 25.5529 64.4666 23.1508 64.4666C23.1219 64.4666 23.0932 64.4656 23.0645 64.4647L23.0216 64.4633C20.8096 64.515 19.9018 63.0359 19.2361 61.9791C19.114 61.7854 18.7821 61.8695 18.8099 62.0959C19.0684 64.2013 20.3613 66.8913 20.3613 67.6114C20.3613 67.826 20.185 68 19.9676 68H16.0324Z" fill="#211C1D"/>
</svg>
