<svg width="35" height="73" viewBox="0 0 35 73" fill="none" xmlns="http://www.w3.org/2000/svg">
<path d="M7.47871 40.2002C6.39766 40.2002 5.73701 39.4595 5.73701 38.2783V14.395C5.73701 13.2139 6.39766 12.4731 7.47871 12.4731C8.55977 12.4731 9.24043 13.2139 9.24043 14.395V38.2783C9.24043 39.4595 8.55977 40.2002 7.47871 40.2002ZM10.2454 26.8672V25.8662C10.2454 17.5781 13.7889 12.0928 19.9749 12.0928C26.1609 12.0928 29.6844 17.5781 29.6844 25.8662V26.8672C29.6844 35.1353 26.1409 40.5806 19.9549 40.5806C13.7889 40.5806 10.2454 35.1553 10.2454 26.8672ZM13.7488 25.8862V26.8271C13.7488 33.4937 16.1312 37.5576 19.9749 37.5576C23.8187 37.5576 26.201 33.4937 26.201 26.8271V25.8862C26.201 19.2197 23.7986 15.1357 19.9549 15.1357C16.1312 15.1357 13.7488 19.2197 13.7488 25.8862Z" fill="#211C1D"/>
<path d="M16.2375 68C16.0275 68 15.8572 67.8365 15.8572 67.6348C15.8572 67.2053 16.9342 64.3825 17.1943 62.4832C17.2256 62.2548 16.9357 62.1637 16.8047 62.3495C16.177 63.2399 15.5441 64.1922 13.8225 64.2149C10.615 64.2572 8.76719 61.2101 9.77613 58.4373C10.2708 57.0778 17.0754 48 18 48C18.9245 48 25.7292 57.0778 26.2239 58.4373C27.2328 61.2101 25.385 64.2572 22.1775 64.2149C20.4559 64.1922 19.823 63.2399 19.1953 62.3495C19.0643 62.1637 18.7744 62.2548 18.8057 62.4832C19.0658 64.3825 20.1428 67.2053 20.1428 67.6348C20.1428 67.8365 19.9725 68 19.7625 68H16.2375Z" fill="#211C1D"/>
</svg>
